<?xml version="1.0" encoding="UTF-8" standalone="no"?>
<svg
   xmlns:dc="http://purl.org/dc/elements/1.1/"
   xmlns:cc="http://creativecommons.org/ns#"
   xmlns:rdf="http://www.w3.org/1999/02/22-rdf-syntax-ns#"
   xmlns:svg="http://www.w3.org/2000/svg"
   xmlns="http://www.w3.org/2000/svg"
   xmlns:sodipodi="http://sodipodi.sourceforge.net/DTD/sodipodi-0.dtd"
   xmlns:inkscape="http://www.inkscape.org/namespaces/inkscape"
   width="716mm"
   height="690mm"
   viewBox="0 0 716 690"
   version="1.1"
   id="svg8"
   inkscape:version="1.0.2-2 (e86c870879, 2021-01-15)"
   sodipodi:docname="1.svg">
  <defs
     id="defs2" />
  <sodipodi:namedview
     id="base"
     pagecolor="#ffffff"
     bordercolor="#666666"
     borderopacity="1.0"
     inkscape:pageopacity="0.0"
     inkscape:pageshadow="2"
     inkscape:zoom="0.0875"
     inkscape:cx="-955.27749"
     inkscape:cy="1414.873"
     inkscape:document-units="mm"
     inkscape:current-layer="layer1"
     inkscape:document-rotation="0"
     showgrid="false"
     inkscape:window-width="1366"
     inkscape:window-height="705"
     inkscape:window-x="-8"
     inkscape:window-y="-8"
     inkscape:window-maximized="1" />
  <metadata
     id="metadata5">
    <rdf:RDF>
      <cc:Work
         rdf:about="">
        <dc:format>image/svg+xml</dc:format>
        <dc:type
           rdf:resource="http://purl.org/dc/dcmitype/StillImage" />
        <dc:title />
      </cc:Work>
    </rdf:RDF>
  </metadata>
  <g
     inkscape:label="Layer 1"
     inkscape:groupmode="layer"
     id="layer1">
    <g
       id="g901"
       transform="matrix(0.91589115,0,0,0.91589115,30.217859,33.39969)"
       inkscape:export-xdpi="80.020203"
       inkscape:export-ydpi="80.020203"
       style="stroke:none">
      <g
         id="g886"
         transform="translate(581.83789,269.40768)"
         style="stroke:none">
        <ellipse
           style="fill:#ffffff;fill-opacity:0.918173;fill-rule:evenodd;stroke:none;stroke-width:1.0464;stroke-linecap:round;stroke-linejoin:round;stroke-miterlimit:4;stroke-dasharray:none;stroke-opacity:1;paint-order:stroke fill markers;stop-color:#000000"
           id="path872"
           cx="-224.50639"
           cy="73.766396"
           rx="357.04889"
           ry="341.0127" />
        <g
           id="g2674"
           transform="matrix(2.1375773,0,0,2.1375773,-639.40721,-283.75203)"
           style="stroke:none">
          <ellipse
             style="fill:#bcd9bc;fill-opacity:1;fill-rule:evenodd;stroke:none;stroke-width:11.253;stroke-linecap:round;stroke-linejoin:round;paint-order:stroke fill markers;stop-color:#000000"
             id="path868-0"
             cx="244.92857"
             cy="128.5119"
             rx="17.764881"
             ry="16.252975" />
          <path
             d="m 213.52513,267.31285 c -3.99869,-4.26507 -3.78634,-10.97321 0.45577,-14.95875 l 25.633,-24.07748 -1.45996,-2.54828 -34.28032,32.9348 c -4.20266,4.0544 -10.90745,3.90112 -14.96186,-0.30153 -4.0544,-4.20266 -3.90112,-10.90745 0.30154,-14.96186 l 38.10274,-36.58841 -1.98607,-3.46658 -51.21516,37.48956 c -5.61646,1.69313 -11.50747,-1.4573 -13.22355,-7.06061 -1.70293,-5.58036 1.4573,-11.50747 7.0508,-13.18744 l 46.5665,-36.07647 -1.28897,-2.24983 -39.38898,22.2645 c -5.58036,1.70293 -11.49432,-1.43436 -13.2104,-7.03767 -1.70294,-5.58035 1.43434,-11.49431 7.03765,-13.21039 l 44.25741,-23.77301 18.22827,-10.44332 -21.05637,-6.41516 c -5.5842,-1.71009 -8.75114,-7.61041 -7.04106,-13.19459 1.71008,-5.58419 7.61041,-8.75114 13.19459,-7.04106 l 46.48879,14.13483 c 17.2642,-21.26316 22.5476,-40.208116 31.76271,-55.112136 l 39.05775,42.552606 c -21.76177,16.82535 -24.48791,69.00266 -36.8537,83.23663 l -16.82545,17.62879 c -1.70125,1.76749 -3.60623,3.2858 -5.74128,4.50901 l -9.64216,5.52417 c -1.72181,0.98646 -3.32525,2.17954 -4.75459,3.51682 l -30.23575,28.39159 c -4.27822,3.97573 -10.98636,3.76338 -14.97189,-0.47873 z"
             id="path857-4"
             style="fill:#ffb380;stroke-width:0.264583;stroke:none"
             sodipodi:nodetypes="cccccsccccccccccccccsccccccssccc" />
          <path
             id="path868-5-9-1"
             style="fill:#7bfff7;fill-opacity:0.851406;fill-rule:evenodd;stroke:none;stroke-width:42.531;stroke-linecap:round;stroke-linejoin:round;paint-order:stroke fill markers;stop-color:#000000"
             d="m 765.71484,644.28516 a 67.142858,61.428569 0 0 0 -67.14257,61.42968 67.142858,61.428569 0 0 0 8.92968,30.60743 124.28572,120 0 0 0 -54.64453,99.39257 124.28572,120 0 0 0 17.03711,60.64258 A 67.142858,61.428569 0 0 0 650,940 a 67.142858,61.428569 0 0 0 67.14258,61.4277 67.142858,61.428569 0 0 0 64.93554,-45.80856 124.28572,120 0 0 0 118.03126,-102.47266 88.571431,72.85714 0 0 0 15.60546,1.13868 88.571431,72.85714 0 0 0 88.57036,-72.85743 88.571431,72.85714 0 0 0 -88.57036,-72.85546 88.571431,72.85714 0 0 0 -69.31445,27.5 124.28572,120 0 0 0 -17.54297,-9.47657 67.142858,61.428569 0 0 0 4,-20.88086 67.142858,61.428569 0 0 0 -67.14258,-61.42968 z"
             transform="scale(0.26458333)" />
          <path
             d="m 174.67213,248.7496 c 3.99869,-4.26507 3.78634,-10.97321 -0.45577,-14.95875 l -25.633,-24.07748 1.45996,-2.54828 34.28032,32.9348 c 4.20266,4.0544 10.90745,3.90112 14.96186,-0.30153 4.0544,-4.20266 3.90112,-10.90745 -0.30154,-14.96186 l -38.10274,-36.58841 1.98607,-3.46658 51.21516,37.48956 c 5.61646,1.69313 11.50747,-1.4573 13.22355,-7.06061 1.70293,-5.58036 -1.4573,-11.50747 -7.0508,-13.18744 l -46.5665,-36.07647 1.28897,-2.24983 39.38898,22.2645 c 5.58036,1.70293 11.49432,-1.43436 13.2104,-7.03767 1.70294,-5.58035 -1.43434,-11.49431 -7.03765,-13.21039 l -44.25741,-23.77301 -18.22827,-10.44332 21.05637,-6.41516 c 5.5842,-1.71009 8.75114,-7.61041 7.04106,-13.19459 -1.71008,-5.58419 -7.61041,-8.75114 -13.19459,-7.04106 l -46.48879,14.13483 C 109.20357,97.717688 103.92017,78.772732 94.705061,63.868712 L 55.647304,106.42132 c 21.76177,16.82535 24.487908,69.00266 36.853702,83.23663 l 16.825454,17.62879 c 1.70125,1.76749 3.60623,3.2858 5.74128,4.50901 l 9.64216,5.52417 c 1.72181,0.98646 3.32525,2.17954 4.75459,3.51682 l 30.23575,28.39159 c 4.27822,3.97573 10.98636,3.76338 14.97189,-0.47873 z"
             id="path857"
             style="fill:#ffb380;stroke-width:0.264583;stroke:none"
             sodipodi:nodetypes="cccccsccccccccccccccsccccccssccc" />
          <ellipse
             style="fill:#bcd9bc;fill-opacity:1;fill-rule:evenodd;stroke:none;stroke-width:11.253;stroke-linecap:round;stroke-linejoin:round;paint-order:stroke fill markers;stop-color:#000000"
             id="path868"
             cx="140.98512"
             cy="213.55655"
             rx="17.764881"
             ry="16.252975" />
          <ellipse
             style="fill:#bcd9bc;fill-opacity:1;fill-rule:evenodd;stroke:none;stroke-width:11.253;stroke-linecap:round;stroke-linejoin:round;paint-order:stroke fill markers;stop-color:#000000"
             id="path868-5"
             cx="174.625"
             cy="194.27974"
             rx="17.764881"
             ry="16.252975" />
          <ellipse
             style="fill:#bcd9bc;fill-opacity:1;fill-rule:evenodd;stroke:none;stroke-width:11.253;stroke-linecap:round;stroke-linejoin:round;paint-order:stroke fill markers;stop-color:#000000"
             id="path868-5-8"
             cx="221.49405"
             cy="159.50595"
             rx="17.764881"
             ry="16.252975" />
          <ellipse
             style="fill:#7bfff7;fill-opacity:0.909804;fill-rule:evenodd;stroke:none;stroke-width:11.253;stroke-linecap:round;stroke-linejoin:round;paint-order:stroke fill markers;stop-color:#000000"
             id="path868-5-9"
             cx="154.21428"
             cy="246.44048"
             rx="17.764881"
             ry="16.252975" />
          <ellipse
             style="fill:#7bfff7;fill-opacity:0.909804;fill-rule:evenodd;stroke:none;stroke-width:11.253;stroke-linecap:round;stroke-linejoin:round;paint-order:stroke fill markers;stop-color:#000000"
             id="path868-5-9-9"
             cx="207.13095"
             cy="213.93454"
             rx="17.764881"
             ry="16.252975" />
          <ellipse
             style="fill:#7bfff7;fill-opacity:0.534137;fill-rule:evenodd;stroke:none;stroke-width:11.253;stroke-linecap:round;stroke-linejoin:round;paint-order:stroke fill markers;stop-color:#000000"
             id="path868-5-9-9-3"
             cx="176.1369"
             cy="142.875"
             rx="17.764881"
             ry="16.252975" />
        </g>
      </g>
    </g>
  </g>
</svg>
